<svg width="201" height="29" viewBox="0 0 201 29" fill="none" xmlns="http://www.w3.org/2000/svg">
<path d="M37.3942 22H34.4283L38.9474 8.90909H42.5142L47.027 22H44.0611L40.782 11.9006H40.6797L37.3942 22ZM37.2088 16.8544H44.2145V19.0149H37.2088V16.8544ZM56.492 14.9815L53.9991 15.1349C53.9565 14.9219 53.8649 14.7301 53.7243 14.5597C53.5836 14.3849 53.3983 14.2464 53.1681 14.1442C52.9423 14.0376 52.6717 13.9844 52.3564 13.9844C51.9345 13.9844 51.5787 14.0739 51.2889 14.2528C50.9991 14.4276 50.8542 14.6619 50.8542 14.956C50.8542 15.1903 50.948 15.3885 51.1355 15.5504C51.323 15.7124 51.6447 15.8423 52.1007 15.9403L53.8777 16.2983C54.8322 16.4943 55.5439 16.8097 56.0126 17.2443C56.4814 17.679 56.7157 18.25 56.7157 18.9574C56.7157 19.6009 56.5261 20.1655 56.1468 20.6513C55.7718 21.1371 55.2562 21.5163 54.6 21.7891C53.948 22.0575 53.1958 22.1918 52.3436 22.1918C51.0439 22.1918 50.0083 21.9212 49.237 21.38C48.47 20.8345 48.0204 20.093 47.8883 19.1555L50.5666 19.0149C50.6475 19.4112 50.8436 19.7138 51.1547 19.9226C51.4657 20.1271 51.8642 20.2294 52.35 20.2294C52.8272 20.2294 53.2108 20.1378 53.5005 19.9545C53.7946 19.767 53.9437 19.5263 53.948 19.2322C53.9437 18.9851 53.8393 18.7827 53.6348 18.625C53.4302 18.4631 53.1149 18.3395 52.6887 18.2543L50.9885 17.9155C50.0297 17.7237 49.3159 17.3913 48.8471 16.9183C48.3826 16.4453 48.1504 15.8423 48.1504 15.1094C48.1504 14.4787 48.3208 13.9354 48.6618 13.4794C49.0069 13.0234 49.4906 12.6719 50.1127 12.4247C50.7392 12.1776 51.4721 12.054 52.3116 12.054C53.5517 12.054 54.5275 12.3161 55.2392 12.8402C55.9551 13.3643 56.3727 14.0781 56.492 14.9815ZM58.4304 22V12.1818H61.1534V22H58.4304ZM59.7983 10.9162C59.3935 10.9162 59.0462 10.782 58.7564 10.5135C58.4709 10.2408 58.3281 9.91477 58.3281 9.53551C58.3281 9.16051 58.4709 8.83878 58.7564 8.57031C59.0462 8.29758 59.3935 8.16122 59.7983 8.16122C60.2031 8.16122 60.5483 8.29758 60.8338 8.57031C61.1236 8.83878 61.2685 9.16051 61.2685 9.53551C61.2685 9.91477 61.1236 10.2408 60.8338 10.5135C60.5483 10.782 60.2031 10.9162 59.7983 10.9162ZM66.1344 22.1854C65.508 22.1854 64.9498 22.0767 64.4597 21.8594C63.9696 21.6378 63.5819 21.3118 63.2963 20.8814C63.0151 20.4467 62.8745 19.9055 62.8745 19.2578C62.8745 18.7124 62.9746 18.2543 63.1749 17.8835C63.3752 17.5128 63.6479 17.2145 63.9931 16.9886C64.3382 16.7628 64.7303 16.5923 65.1692 16.4773C65.6124 16.3622 66.0769 16.2812 66.5627 16.2344C67.1337 16.1747 67.5939 16.1193 67.9434 16.0682C68.2928 16.0128 68.5463 15.9318 68.704 15.8253C68.8617 15.7187 68.9405 15.5611 68.9405 15.3523V15.3139C68.9405 14.9091 68.8127 14.5959 68.557 14.3743C68.3056 14.1527 67.9476 14.0419 67.4831 14.0419C66.9931 14.0419 66.6032 14.1506 66.3134 14.3679C66.0236 14.581 65.8319 14.8494 65.7381 15.1733L63.2196 14.9688C63.3475 14.3722 63.5989 13.8565 63.9739 13.4219C64.3489 12.983 64.8326 12.6463 65.4249 12.4119C66.0215 12.1733 66.7118 12.054 67.4959 12.054C68.0414 12.054 68.5634 12.1179 69.062 12.2457C69.5648 12.3736 70.0101 12.5717 70.3979 12.8402C70.79 13.1087 71.0989 13.4538 71.3248 13.8757C71.5506 14.2933 71.6635 14.794 71.6635 15.3778V22H69.0811V20.6385H69.0044C68.8468 20.9453 68.6358 21.2159 68.3716 21.4503C68.1074 21.6804 67.79 21.8615 67.4192 21.9936C67.0485 22.1214 66.6202 22.1854 66.1344 22.1854ZM66.9142 20.3061C67.3148 20.3061 67.6685 20.2273 67.9753 20.0696C68.2821 19.9077 68.5229 19.6903 68.6976 19.4176C68.8723 19.1449 68.9597 18.8359 68.9597 18.4908V17.4489C68.8745 17.5043 68.7573 17.5554 68.6081 17.6023C68.4632 17.6449 68.2992 17.6854 68.1159 17.7237C67.9327 17.7578 67.7495 17.7898 67.5662 17.8196C67.383 17.8452 67.2168 17.8686 67.0676 17.8899C66.748 17.9368 66.4689 18.0114 66.2303 18.1136C65.9917 18.2159 65.8063 18.3544 65.6742 18.5291C65.5421 18.6996 65.476 18.9126 65.476 19.1683C65.476 19.5391 65.6103 19.8224 65.8787 20.0185C66.1515 20.2102 66.4966 20.3061 66.9142 20.3061ZM89.5437 13.4922H86.744C86.6928 13.13 86.5884 12.8082 86.4308 12.527C86.2731 12.2415 86.0707 11.9986 85.8235 11.7983C85.5763 11.598 85.2908 11.4446 84.967 11.3381C84.6474 11.2315 84.3001 11.1783 83.9251 11.1783C83.2475 11.1783 82.6573 11.3466 82.1545 11.6832C81.6516 12.0156 81.2617 12.5014 80.9847 13.1406C80.7077 13.7756 80.5692 14.5469 80.5692 15.4545C80.5692 16.3878 80.7077 17.1719 80.9847 17.8068C81.266 18.4418 81.658 18.9212 82.1609 19.245C82.6637 19.5689 83.2454 19.7308 83.9059 19.7308C84.2766 19.7308 84.6197 19.6818 84.935 19.5838C85.2546 19.4858 85.538 19.343 85.7852 19.1555C86.0323 18.9638 86.2369 18.7315 86.3988 18.4588C86.565 18.1861 86.68 17.875 86.744 17.5256L89.5437 17.5384C89.4712 18.1392 89.2901 18.7188 89.0004 19.277C88.7148 19.831 88.3292 20.3274 87.8434 20.7663C87.3619 21.201 86.7866 21.5462 86.1175 21.8018C85.4528 22.0533 84.7006 22.179 83.8612 22.179C82.6935 22.179 81.6495 21.9148 80.729 21.3864C79.8129 20.858 79.0884 20.093 78.5558 19.0916C78.0273 18.0902 77.7631 16.8778 77.7631 15.4545C77.7631 14.027 78.0316 12.8125 78.5685 11.8111C79.1055 10.8097 79.8342 10.0469 80.7546 9.52273C81.6751 8.99432 82.7106 8.73011 83.8612 8.73011C84.6197 8.73011 85.3228 8.83665 85.9705 9.04972C86.6225 9.26278 87.1999 9.57386 87.7028 9.98295C88.2056 10.3878 88.6147 10.8842 88.93 11.4723C89.2496 12.0604 89.4542 12.7337 89.5437 13.4922ZM94.277 22.1854C93.6506 22.1854 93.0923 22.0767 92.6023 21.8594C92.1122 21.6378 91.7244 21.3118 91.4389 20.8814C91.1577 20.4467 91.017 19.9055 91.017 19.2578C91.017 18.7124 91.1172 18.2543 91.3175 17.8835C91.5178 17.5128 91.7905 17.2145 92.1357 16.9886C92.4808 16.7628 92.8729 16.5923 93.3118 16.4773C93.755 16.3622 94.2195 16.2812 94.7053 16.2344C95.2763 16.1747 95.7365 16.1193 96.0859 16.0682C96.4354 16.0128 96.6889 15.9318 96.8466 15.8253C97.0043 15.7187 97.0831 15.5611 97.0831 15.3523V15.3139C97.0831 14.9091 96.9553 14.5959 96.6996 14.3743C96.4482 14.1527 96.0902 14.0419 95.6257 14.0419C95.1357 14.0419 94.7457 14.1506 94.456 14.3679C94.1662 14.581 93.9744 14.8494 93.8807 15.1733L91.3622 14.9688C91.4901 14.3722 91.7415 13.8565 92.1165 13.4219C92.4915 12.983 92.9751 12.6463 93.5675 12.4119C94.1641 12.1733 94.8544 12.054 95.6385 12.054C96.1839 12.054 96.706 12.1179 97.2045 12.2457C97.7074 12.3736 98.1527 12.5717 98.5405 12.8402C98.9325 13.1087 99.2415 13.4538 99.4673 13.8757C99.6932 14.2933 99.8061 14.794 99.8061 15.3778V22H97.2237V20.6385H97.147C96.9893 20.9453 96.7784 21.2159 96.5142 21.4503C96.25 21.6804 95.9325 21.8615 95.5618 21.9936C95.1911 22.1214 94.7628 22.1854 94.277 22.1854ZM95.0568 20.3061C95.4574 20.3061 95.8111 20.2273 96.1179 20.0696C96.4247 19.9077 96.6655 19.6903 96.8402 19.4176C97.0149 19.1449 97.1023 18.8359 97.1023 18.4908V17.4489C97.017 17.5043 96.8999 17.5554 96.7507 17.6023C96.6058 17.6449 96.4418 17.6854 96.2585 17.7237C96.0753 17.7578 95.892 17.7898 95.7088 17.8196C95.5256 17.8452 95.3594 17.8686 95.2102 17.8899C94.8906 17.9368 94.6115 18.0114 94.3729 18.1136C94.1342 18.2159 93.9489 18.3544 93.8168 18.5291C93.6847 18.6996 93.6186 18.9126 93.6186 19.1683C93.6186 19.5391 93.7528 19.8224 94.0213 20.0185C94.294 20.2102 94.6392 20.3061 95.0568 20.3061ZM101.919 22V12.1818H104.559V13.8949H104.661C104.84 13.2855 105.14 12.8253 105.562 12.5142C105.984 12.1989 106.47 12.0412 107.02 12.0412C107.156 12.0412 107.303 12.0497 107.461 12.0668C107.618 12.0838 107.757 12.1072 107.876 12.1371V14.5533C107.748 14.5149 107.571 14.4808 107.346 14.451C107.12 14.4212 106.913 14.4062 106.725 14.4062C106.325 14.4062 105.967 14.4936 105.652 14.6683C105.341 14.8388 105.093 15.0774 104.91 15.3842C104.731 15.6911 104.642 16.0447 104.642 16.4453V22H101.919ZM113.25 25.8864C112.368 25.8864 111.612 25.7649 110.981 25.522C110.355 25.2834 109.856 24.9574 109.485 24.544C109.115 24.1307 108.874 23.6662 108.763 23.1506L111.281 22.8118C111.358 23.0078 111.48 23.1911 111.646 23.3615C111.812 23.532 112.031 23.6683 112.304 23.7706C112.581 23.8771 112.918 23.9304 113.314 23.9304C113.906 23.9304 114.394 23.7855 114.778 23.4957C115.166 23.2102 115.36 22.7308 115.36 22.0575V20.2614H115.244C115.125 20.5341 114.946 20.7919 114.708 21.0348C114.469 21.2777 114.162 21.4759 113.787 21.6293C113.412 21.7827 112.965 21.8594 112.445 21.8594C111.708 21.8594 111.036 21.6889 110.431 21.348C109.83 21.0028 109.351 20.4766 108.993 19.7692C108.639 19.0575 108.463 18.1584 108.463 17.0717C108.463 15.9595 108.644 15.0305 109.006 14.2848C109.368 13.5391 109.85 12.9808 110.45 12.6101C111.056 12.2393 111.718 12.054 112.438 12.054C112.988 12.054 113.448 12.1477 113.819 12.3352C114.19 12.5185 114.488 12.7486 114.714 13.0256C114.944 13.2983 115.121 13.5668 115.244 13.831H115.347V12.1818H118.051V22.0959C118.051 22.9311 117.846 23.63 117.437 24.1925C117.028 24.755 116.461 25.1768 115.737 25.4581C115.017 25.7436 114.188 25.8864 113.25 25.8864ZM113.308 19.8139C113.747 19.8139 114.117 19.7053 114.42 19.4879C114.727 19.2663 114.961 18.951 115.123 18.5419C115.289 18.1286 115.372 17.6342 115.372 17.0589C115.372 16.4837 115.291 15.9851 115.129 15.5632C114.968 15.1371 114.733 14.8068 114.426 14.5724C114.119 14.3381 113.747 14.2209 113.308 14.2209C112.86 14.2209 112.483 14.3423 112.176 14.5852C111.869 14.8239 111.637 15.1562 111.48 15.5824C111.322 16.0085 111.243 16.5007 111.243 17.0589C111.243 17.6257 111.322 18.1158 111.48 18.5291C111.642 18.9382 111.874 19.2557 112.176 19.4815C112.483 19.7031 112.86 19.8139 113.308 19.8139ZM124.654 22.1918C123.661 22.1918 122.802 21.9808 122.078 21.5589C121.357 21.1328 120.801 20.5405 120.409 19.782C120.017 19.0192 119.821 18.1349 119.821 17.1293C119.821 16.1151 120.017 15.2287 120.409 14.4702C120.801 13.7074 121.357 13.1151 122.078 12.6932C122.802 12.267 123.661 12.054 124.654 12.054C125.646 12.054 126.503 12.267 127.223 12.6932C127.948 13.1151 128.506 13.7074 128.898 14.4702C129.29 15.2287 129.486 16.1151 129.486 17.1293C129.486 18.1349 129.29 19.0192 128.898 19.782C128.506 20.5405 127.948 21.1328 127.223 21.5589C126.503 21.9808 125.646 22.1918 124.654 22.1918ZM124.666 20.0824C125.118 20.0824 125.495 19.9545 125.798 19.6989C126.1 19.4389 126.328 19.0852 126.482 18.6378C126.639 18.1903 126.718 17.6811 126.718 17.1101C126.718 16.5391 126.639 16.0298 126.482 15.5824C126.328 15.1349 126.1 14.7812 125.798 14.5213C125.495 14.2614 125.118 14.1314 124.666 14.1314C124.21 14.1314 123.827 14.2614 123.516 14.5213C123.209 14.7812 122.977 15.1349 122.819 15.5824C122.666 16.0298 122.589 16.5391 122.589 17.1101C122.589 17.6811 122.666 18.1903 122.819 18.6378C122.977 19.0852 123.209 19.4389 123.516 19.6989C123.827 19.9545 124.21 20.0824 124.666 20.0824ZM135.474 22V8.90909H140.638C141.631 8.90909 142.477 9.09872 143.176 9.47798C143.875 9.85298 144.408 10.375 144.774 11.044C145.145 11.7088 145.33 12.4759 145.33 13.3452C145.33 14.2145 145.143 14.9815 144.768 15.6463C144.393 16.3111 143.849 16.8288 143.138 17.1996C142.43 17.5703 141.574 17.7557 140.568 17.7557H137.276V15.5376H140.121C140.653 15.5376 141.092 15.446 141.438 15.2628C141.787 15.0753 142.047 14.8175 142.217 14.4893C142.392 14.157 142.479 13.7756 142.479 13.3452C142.479 12.9105 142.392 12.5312 142.217 12.2074C142.047 11.8793 141.787 11.6257 141.438 11.4467C141.088 11.2635 140.645 11.1719 140.108 11.1719H138.241V22H135.474ZM149.613 22.1854C148.987 22.1854 148.428 22.0767 147.938 21.8594C147.448 21.6378 147.06 21.3118 146.775 20.8814C146.494 20.4467 146.353 19.9055 146.353 19.2578C146.353 18.7124 146.453 18.2543 146.653 17.8835C146.854 17.5128 147.126 17.2145 147.472 16.9886C147.817 16.7628 148.209 16.5923 148.648 16.4773C149.091 16.3622 149.555 16.2812 150.041 16.2344C150.612 16.1747 151.072 16.1193 151.422 16.0682C151.771 16.0128 152.025 15.9318 152.183 15.8253C152.34 15.7187 152.419 15.5611 152.419 15.3523V15.3139C152.419 14.9091 152.291 14.5959 152.036 14.3743C151.784 14.1527 151.426 14.0419 150.962 14.0419C150.472 14.0419 150.082 14.1506 149.792 14.3679C149.502 14.581 149.31 14.8494 149.217 15.1733L146.698 14.9688C146.826 14.3722 147.077 13.8565 147.452 13.4219C147.827 12.983 148.311 12.6463 148.903 12.4119C149.5 12.1733 150.19 12.054 150.974 12.054C151.52 12.054 152.042 12.1179 152.54 12.2457C153.043 12.3736 153.489 12.5717 153.876 12.8402C154.268 13.1087 154.577 13.4538 154.803 13.8757C155.029 14.2933 155.142 14.794 155.142 15.3778V22H152.56V20.6385H152.483C152.325 20.9453 152.114 21.2159 151.85 21.4503C151.586 21.6804 151.268 21.8615 150.898 21.9936C150.527 22.1214 150.099 22.1854 149.613 22.1854ZM150.393 20.3061C150.793 20.3061 151.147 20.2273 151.454 20.0696C151.761 19.9077 152.001 19.6903 152.176 19.4176C152.351 19.1449 152.438 18.8359 152.438 18.4908V17.4489C152.353 17.5043 152.236 17.5554 152.087 17.6023C151.942 17.6449 151.778 17.6854 151.594 17.7237C151.411 17.7578 151.228 17.7898 151.045 17.8196C150.862 17.8452 150.695 17.8686 150.546 17.8899C150.227 17.9368 149.947 18.0114 149.709 18.1136C149.47 18.2159 149.285 18.3544 149.153 18.5291C149.021 18.6996 148.955 18.9126 148.955 19.1683C148.955 19.5391 149.089 19.8224 149.357 20.0185C149.63 20.2102 149.975 20.3061 150.393 20.3061ZM157.255 22V12.1818H159.895V13.8949H159.997C160.176 13.2855 160.476 12.8253 160.898 12.5142C161.32 12.1989 161.806 12.0412 162.355 12.0412C162.492 12.0412 162.639 12.0497 162.797 12.0668C162.954 12.0838 163.093 12.1072 163.212 12.1371V14.5533C163.084 14.5149 162.907 14.4808 162.681 14.451C162.456 14.4212 162.249 14.4062 162.061 14.4062C161.661 14.4062 161.303 14.4936 160.988 14.6683C160.676 14.8388 160.429 15.0774 160.246 15.3842C160.067 15.6911 159.978 16.0447 159.978 16.4453V22H157.255ZM170.334 12.1818V14.2273H164.422V12.1818H170.334ZM165.764 9.82955H168.487V18.983C168.487 19.2344 168.525 19.4304 168.602 19.571C168.679 19.7074 168.785 19.8033 168.922 19.8587C169.062 19.9141 169.224 19.9418 169.407 19.9418C169.535 19.9418 169.663 19.9311 169.791 19.9098C169.919 19.8842 170.017 19.8651 170.085 19.8523L170.513 21.8786C170.377 21.9212 170.185 21.9702 169.938 22.0256C169.691 22.0852 169.39 22.1214 169.037 22.1342C168.381 22.1598 167.805 22.0724 167.311 21.8722C166.821 21.6719 166.439 21.3608 166.167 20.9389C165.894 20.517 165.76 19.9844 165.764 19.3409V9.82955ZM174.831 16.3239V22H172.108V12.1818H174.703V13.9141H174.818C175.036 13.343 175.4 12.8913 175.911 12.5589C176.423 12.2223 177.043 12.054 177.771 12.054C178.453 12.054 179.048 12.2031 179.555 12.5014C180.062 12.7997 180.456 13.2259 180.737 13.7798C181.019 14.3295 181.159 14.9858 181.159 15.7486V22H178.436V16.2344C178.441 15.6335 178.287 15.1648 177.976 14.8281C177.665 14.4872 177.237 14.3168 176.691 14.3168C176.325 14.3168 176.001 14.3956 175.72 14.5533C175.443 14.7109 175.225 14.9411 175.068 15.2436C174.914 15.5419 174.835 15.902 174.831 16.3239ZM187.78 22.1918C186.77 22.1918 185.901 21.9872 185.172 21.5781C184.447 21.1648 183.889 20.581 183.497 19.8267C183.105 19.0682 182.909 18.1712 182.909 17.1357C182.909 16.1257 183.105 15.2393 183.497 14.4766C183.889 13.7138 184.441 13.1193 185.153 12.6932C185.869 12.267 186.708 12.054 187.671 12.054C188.319 12.054 188.922 12.1584 189.48 12.3672C190.043 12.5717 190.533 12.8807 190.95 13.294C191.372 13.7074 191.7 14.2273 191.935 14.8537C192.169 15.4759 192.286 16.2045 192.286 17.0398V17.7876H183.996V16.1001H189.723C189.723 15.7081 189.638 15.3608 189.467 15.0582C189.297 14.7557 189.06 14.5192 188.758 14.3487C188.46 14.174 188.112 14.0866 187.716 14.0866C187.303 14.0866 186.936 14.1825 186.616 14.3743C186.301 14.5618 186.054 14.8153 185.875 15.1349C185.696 15.4503 185.604 15.8018 185.6 16.1896V17.794C185.6 18.2798 185.69 18.6996 185.869 19.0533C186.052 19.407 186.31 19.6797 186.642 19.8714C186.974 20.0632 187.369 20.1591 187.825 20.1591C188.127 20.1591 188.404 20.1165 188.656 20.0312C188.907 19.946 189.122 19.8182 189.301 19.6477C189.48 19.4773 189.616 19.2685 189.71 19.0213L192.229 19.1875C192.101 19.7926 191.839 20.321 191.442 20.7727C191.05 21.2202 190.543 21.5696 189.921 21.821C189.303 22.0682 188.589 22.1918 187.78 22.1918ZM194.063 22V12.1818H196.703V13.8949H196.805C196.984 13.2855 197.285 12.8253 197.707 12.5142C198.129 12.1989 198.614 12.0412 199.164 12.0412C199.3 12.0412 199.447 12.0497 199.605 12.0668C199.763 12.0838 199.901 12.1072 200.021 12.1371V14.5533C199.893 14.5149 199.716 14.4808 199.49 14.451C199.264 14.4212 199.058 14.4062 198.87 14.4062C198.469 14.4062 198.112 14.4936 197.796 14.6683C197.485 14.8388 197.238 15.0774 197.055 15.3842C196.876 15.6911 196.786 16.0447 196.786 16.4453V22H194.063Z" fill="#B5B5B5"/>
<path opacity="0.2" d="M3.625 14.2428L9.0625 17.2187V23.4311L4.09625 20.7123C3.95391 20.6344 3.83508 20.5198 3.75219 20.3803C3.66929 20.2408 3.62537 20.0816 3.625 19.9194V14.2428ZM19.9375 17.2187V23.4311L24.9037 20.7123C25.0461 20.6344 25.1649 20.5198 25.2478 20.3803C25.3307 20.2408 25.3746 20.0816 25.375 19.9194V14.244L19.9375 17.2187ZM14.065 2.83202L9.42047 5.37632L14.5 8.15624L19.5818 5.37405L14.935 2.83202C14.8016 2.75904 14.652 2.72079 14.5 2.72079C14.348 2.72079 14.1984 2.75904 14.065 2.83202Z" fill="#B4B4B4"/>
<path d="M25.3387 7.49354L15.37 2.03905C15.1034 1.89249 14.8042 1.81564 14.5 1.81564C14.1958 1.81564 13.8966 1.89249 13.63 2.03905L3.66125 7.49694C3.37656 7.65271 3.13891 7.88205 2.97313 8.16102C2.80734 8.44 2.71949 8.75836 2.71875 9.08288V19.9171C2.71949 20.2416 2.80734 20.56 2.97313 20.839C3.13891 21.1179 3.37656 21.3473 3.66125 21.503L13.63 26.9598C13.8964 27.107 14.1957 27.1842 14.5 27.1842C14.8043 27.1842 15.1036 27.107 15.37 26.9598L25.3387 21.503C25.6234 21.3473 25.8611 21.1179 26.0269 20.839C26.1927 20.56 26.2805 20.2416 26.2812 19.9171V9.08288C26.2811 8.75779 26.1936 8.43871 26.0277 8.15909C25.8619 7.87946 25.6239 7.64959 25.3387 7.49354ZM19.0312 17.2187V22.893L15.4062 24.8777V15.0369L24.4688 10.0752V13.7002L19.5025 16.419C19.3591 16.4974 19.2397 16.6131 19.1567 16.7539C19.0737 16.8947 19.0304 17.0553 19.0312 17.2187ZM9.4975 16.4258L4.53125 13.707V10.082L13.5938 15.0437V24.8845L9.96875 22.893V17.2187C9.96838 17.0565 9.92446 16.8973 9.84156 16.7578C9.75867 16.6183 9.63984 16.5037 9.4975 16.4258ZM9.4182 6.41057L14.0627 8.95374C14.1961 9.02671 14.3457 9.06496 14.4977 9.06496C14.6498 9.06496 14.7994 9.02671 14.9327 8.95374L19.5773 6.41057L23.4832 8.54819L14.5 13.4669L5.51227 8.54593L9.4182 6.41057ZM14.5 3.62499L17.6945 5.37405L14.5 7.12425L11.3055 5.37518L14.5 3.62499ZM4.53125 15.771L8.15625 17.7557V21.9007L4.53125 19.9171V15.771ZM20.8438 21.9007V17.7557L24.4688 15.771V19.9171L20.8438 21.9007Z" fill="#B5B5B5"/>
</svg>
