<svg width="162" height="40" viewBox="0 0 162 40" fill="none" xmlns="http://www.w3.org/2000/svg">
<path fill-rule="evenodd" clip-rule="evenodd" d="M131.499 2.17948C129.975 3.37848 127.44 6.39148 125.864 8.87548C120.633 17.1255 122.508 28.4415 130.418 36.3515C135.168 41.1025 137.023 41.0645 133.093 36.2975C129.512 31.9535 130.176 31.1655 137.084 31.5575C140.791 31.7675 142 31.4875 142 30.4185C142 29.4745 140.871 29.0005 138.625 29.0005C136.769 29.0005 133.897 28.7295 132.244 28.3995C129.428 27.8365 129.248 27.5255 129.384 23.4675C129.552 18.4945 130.366 17.2295 132.343 18.8705C133.414 19.7595 134.024 19.6775 134.99 18.5125C136.559 16.6215 138 16.5625 138 18.3895C138 19.1535 138.842 20.8185 139.871 22.0895C141.546 24.1585 141.902 24.2415 143.263 22.8795C144.1 22.0435 144.945 20.5285 145.142 19.5125C145.637 16.9595 147.443 16.5865 149.475 18.6185C150.916 20.0595 151.326 20.1055 152.11 18.9125C152.879 17.7425 153.295 17.8375 154.541 19.4715C155.368 20.5565 155.749 22.1315 155.389 22.9715C155.028 23.8125 154.766 25.2975 154.806 26.2725C154.846 27.2465 154.456 27.7825 153.939 27.4635C153.423 27.1435 153 27.3595 153 27.9415C153 28.5235 151.875 29.0005 150.5 29.0005C149.125 29.0005 148 28.6125 148 28.1395C148 26.2955 143.41 28.2125 143.266 30.1165C143.132 31.9015 143.611 32.0325 148.559 31.5635C151.662 31.2685 154 31.4515 154 31.9885C154 32.5065 152.603 34.5215 150.896 36.4655C147.113 40.7755 148.257 41.0615 153.148 37.0295C160.199 31.2185 163.299 18.3465 159.443 10.8915C156.762 5.70648 150.968 0.000480517 148.384 0.000480517C145.615 0.000480517 145.425 0.56848 147.5 2.64348C149.248 4.39148 149.432 7.32548 147.965 10.0665C146.465 12.8685 144.172 12.5505 144.733 9.61748C145.257 6.87748 143.205 5.06748 141.904 7.12248C141.271 8.12048 141.026 8.15548 141.015 7.25048C140.984 4.66248 139.114 6.12548 138.813 8.97348C138.57 11.2845 138.177 11.7445 137.05 11.0405C135.288 9.94048 135.085 2.80548 136.8 2.23348C137.46 2.01348 138 1.42148 138 0.91748C138 -0.75052 134.314 -0.0345197 131.499 2.17948ZM0 12.0005V19.0005H4.5C9.909 19.0005 13 16.4545 13 12.0005C13 7.54648 9.909 5.00048 4.5 5.00048H0V12.0005ZM18.078 6.85448C17.532 7.87448 16.173 11.0245 15.058 13.8545L13.029 19.0005H15.046C16.155 19.0005 17.322 18.3255 17.638 17.5005C18.4 15.5165 21.974 15.5825 23.456 17.6095C24.103 18.4945 25.342 19.0565 26.209 18.8595C27.58 18.5475 27.458 17.6175 25.28 11.7505C22.649 4.66748 20.156 2.97248 18.078 6.85448ZM29 12.0005C29 18.2615 29.205 19.0005 30.94 19.0005C32.459 19.0005 32.946 18.1885 33.19 15.2505L33.5 11.5005L36 15.2385C37.375 17.2935 39.288 18.9815 40.25 18.9885C41.751 18.9985 42 18.0055 42 12.0005C42 5.66748 41.81 5.00048 40 5.00048C38.416 5.00048 37.994 5.67648 37.973 8.25048L37.946 11.5005L35.223 8.24148C33.725 6.44948 31.712 4.98648 30.75 4.99148C29.251 4.99948 29 6.00348 29 12.0005ZM46.238 9.75048C42.738 18.0255 42.601 19.0005 44.933 19.0005C46.104 19.0005 47 18.3505 47 17.5005C47 16.5625 47.948 16.0005 49.531 16.0005C50.924 16.0005 52.322 16.6755 52.638 17.5005C52.955 18.3255 54.115 19.0005 55.215 19.0005C57.527 19.0005 57.303 17.2055 54.04 9.59348C51.37 3.36448 48.917 3.41448 46.238 9.75048ZM63 6.43448C63 7.22348 64.151 8.00948 65.564 8.18448L68.128 8.50048L65.092 12.5005C60.686 18.3055 60.997 19.0005 68 19.0005C72.555 19.0005 74 18.6535 74 17.5605C74 16.6345 72.726 16.0105 70.43 15.8105L66.86 15.5005L70.43 11.3415C72.394 9.05448 74 6.69148 74 6.09148C74 5.43548 71.806 5.00048 68.5 5.00048C64.391 5.00048 63 5.36348 63 6.43448ZM76 12.0005C76 17.5565 76.31 19.0005 77.5 19.0005C78.5 19.0005 79 18.0005 79 16.0005C79 13.4675 79.389 13.0005 81.5 13.0005C83.611 13.0005 84 13.4675 84 16.0005C84 18.3335 84.444 19.0005 86 19.0005C87.81 19.0005 88 18.3335 88 12.0005C88 5.66748 87.81 5.00048 86 5.00048C84.533 5.00048 84 5.66748 84 7.50048C84 9.50048 83.5 10.0005 81.5 10.0005C79.5 10.0005 79 9.50048 79 7.50048C79 5.94448 78.433 5.00048 77.5 5.00048C76.31 5.00048 76 6.44448 76 12.0005ZM92.223 6.55748C89.098 8.74648 89.098 15.2545 92.223 17.4435C97.305 21.0035 104 17.9095 104 12.0005C104 6.09148 97.305 2.99748 92.223 6.55748ZM106 12.0005V19.0005H111C114.778 19.0005 116 18.6335 116 17.5005C116 16.5005 115 16.0005 113 16.0005C110.03 16.0005 110 15.9445 110 10.5005C110 5.66748 109.758 5.00048 108 5.00048C106.19 5.00048 106 5.66748 106 12.0005ZM7.418 8.60748C10.894 9.94148 8.845 16.0005 4.918 16.0005C4.413 16.0005 4 14.2005 4 12.0005C4 7.98148 4.498 7.48648 7.418 8.60748ZM99.5 12.0005C99.5 14.8365 99.086 15.5595 97.318 15.8115C94.393 16.2275 92.489 12.8245 94.032 9.93948C94.738 8.62148 95.922 7.99148 97.318 8.18948C99.086 8.44148 99.5 9.16448 99.5 12.0005ZM21.29 11.0005C21.617 12.2505 21.32 13.0005 20.5 13.0005C19.68 13.0005 19.383 12.2505 19.71 11.0005C19.998 9.90048 20.353 9.00048 20.5 9.00048C20.647 9.00048 21.002 9.90048 21.29 11.0005ZM51 12.0005C51 12.5505 50.55 13.0005 50 13.0005C49.45 13.0005 49 12.5505 49 12.0005C49 11.4505 49.45 11.0005 50 11.0005C50.55 11.0005 51 11.4505 51 12.0005ZM0 30.0005V36.0005H5C7.75 36.0005 10 35.5505 10 35.0005C10 34.4505 8.65 34.0005 7 34.0005C5 34.0005 4 33.5005 4 32.5005C4 31.5675 4.944 31.0005 6.5 31.0005C7.875 31.0005 9 30.5505 9 30.0005C9 29.4505 7.875 29.0005 6.5 29.0005C4.944 29.0005 4 28.4335 4 27.5005C4 26.5675 4.944 26.0005 6.5 26.0005C7.875 26.0005 9 25.5505 9 25.0005C9 24.4505 6.975 24.0005 4.5 24.0005H0V30.0005ZM13.625 25.5175C11.308 27.8345 11.499 33.6615 13.934 34.9655C16.694 36.4425 22 36.2755 22 34.7115C22 33.9765 20.872 33.4385 19.377 33.4615C17.934 33.4825 16.249 32.7125 15.632 31.7505C13.993 29.1935 16.072 26.4485 19.456 26.6975C23.247 26.9775 22.136 24.5795 18.298 24.1965C16.471 24.0145 14.6 24.5435 13.625 25.5175ZM25.571 25.5715C23.299 27.8445 23.524 33.6755 25.934 34.9655C30.623 37.4745 37 34.6135 37 30.0005C37 25.1155 29.092 22.0515 25.571 25.5715ZM39 30.0005C39 35.3335 39.222 36.0005 41 36.0005C42.587 36.0005 43.002 35.3305 43.011 32.7505L43.022 29.5005L45.584 32.7505C49.563 37.7995 51 37.0705 51 30.0005C51 24.6675 50.778 24.0005 49 24.0005C47.506 24.0005 47 24.6675 47 26.6355V29.2705L44.927 26.6355C43.788 25.1865 41.988 24.0005 40.927 24.0005C39.238 24.0005 39 24.7425 39 30.0005ZM55.571 25.5715C53.299 27.8445 53.524 33.6755 55.934 34.9655C60.623 37.4745 67 34.6135 67 30.0005C67 25.1155 59.092 22.0515 55.571 25.5715ZM69.625 27.1255C68.405 33.2275 68.834 36.0005 71 36.0005C72.508 36.0005 73.007 35.3235 73.03 33.2505C73.056 30.8995 73.209 30.7545 74.08 32.2505C74.641 33.2125 75.73 34.0005 76.5 34.0005C77.27 34.0005 78.359 33.2125 78.92 32.2505C79.791 30.7545 79.944 30.8995 79.97 33.2505C79.993 35.3235 80.492 36.0005 82 36.0005C84.196 36.0005 84.298 35.4505 83.364 28.6405C82.589 22.9865 79.96 22.2685 77.935 27.1575L76.627 30.3145L75.132 27.1575C73.177 23.0295 70.447 23.0135 69.625 27.1255ZM86 30.0005C86 35.3335 86.222 36.0005 88 36.0005C89.778 36.0005 90 35.3335 90 30.0005C90 24.6675 89.778 24.0005 88 24.0005C86.222 24.0005 86 24.6675 86 30.0005ZM94.625 25.5175C92.308 27.8345 92.499 33.6615 94.934 34.9655C97.694 36.4425 103 36.2755 103 34.7115C103 33.9765 101.872 33.4385 100.377 33.4615C98.934 33.4825 97.249 32.7125 96.632 31.7505C94.993 29.1935 97.072 26.4485 100.456 26.6975C104.247 26.9775 103.136 24.5795 99.298 24.1965C97.471 24.0145 95.6 24.5435 94.625 25.5175ZM106.667 24.6675C106.3 25.0335 106 26.3395 106 27.5695C106 29.1665 106.878 30.1115 109.075 30.8765C112.461 32.0575 112.163 34.2195 108.675 33.7765C107.479 33.6245 106.275 33.9505 106 34.5005C105.382 35.7355 109.364 36.3775 112.602 35.5645C116.227 34.6545 115.855 30.5975 112 29.0005C108.367 27.4955 108.019 25.5795 111.5 26.2455C113.176 26.5655 114 26.2745 114 25.3615C114 23.9505 107.956 23.3785 106.667 24.6675ZM32.814 29.7655C33.031 32.0115 32.641 33.2015 31.551 33.6195C28.156 34.9225 25.545 29.8555 28.229 27.1715C30.326 25.0745 32.478 26.2925 32.814 29.7655ZM62.814 29.7655C63.031 32.0115 62.641 33.2015 61.551 33.6195C58.156 34.9225 55.545 29.8555 58.229 27.1715C60.326 25.0745 62.478 26.2925 62.814 29.7655Z" fill="#B5B5B5"/>
</svg>
