<svg width="237" height="32" viewBox="0 0 237 32" fill="none" xmlns="http://www.w3.org/2000/svg">
<path fill-rule="evenodd" clip-rule="evenodd" d="M2.24996 1.71301C-0.739039 2.27901 -0.685039 5.41501 2.41696 11.247L4.83296 15.792L2.37496 20.646C-0.915039 27.142 -0.517039 30.401 3.61396 30.803C6.53996 31.088 6.76596 30.867 7.36396 27.126C8.07596 22.671 11.788 19 15.579 19C19.106 19 22.955 22.955 23.363 27C23.676 30.102 24.075 30.536 26.865 30.814C28.927 31.019 30.207 30.624 30.574 29.669C31.381 27.565 29.326 20.684 27.011 17.741C25.185 15.419 25.158 15.114 26.669 13.861C28.614 12.248 31 6.87001 31 4.10001C31 1.86501 27.976 0.55501 25 1.50001C23.703 1.91201 23 3.01301 23 4.63301C23 10.532 17.859 13.821 12.295 11.482C10.031 10.53 8.85796 9.07501 7.80296 5.90901C6.29396 1.38101 5.83396 1.03401 2.24996 1.71301ZM41.502 2.51901C36.857 5.02901 35.21 6.88301 33.388 11.655C31.215 17.343 32.514 22.167 37.527 27.028L41.106 30.5L52.149 30.841L63.193 31.182L62.847 21.161C62.475 10.431 61.467 7.93101 55.802 3.70201C52.258 1.05501 45.279 0.47801 41.502 2.51901ZM64.438 2.30001C64.164 3.01601 64.065 9.65301 64.22 17.05L64.5 30.5H68H71.5L71.802 25.25L72.105 20H76.917C82.271 20 87 22.81 87 25.991C87 29.557 88.183 31 91.107 31C93.786 31 94 30.721 94 27.232C94 24.862 93.074 22.101 91.503 19.789C89.839 17.341 89.373 15.887 90.107 15.434C91.638 14.488 94.951 6.95301 94.978 4.35801C94.993 2.91701 94.209 2.01801 92.579 1.60901C88.937 0.69501 87 1.86301 87 4.97201C87 6.48901 86.067 8.91601 84.927 10.365C83.155 12.619 82.089 13 77.559 13H72.263L71.695 8.76001C70.956 3.25201 65.826 -1.31499 64.438 2.30001ZM104.5 2.87101C97.088 6.25601 93.969 15.709 97.852 23.016C100.92 28.789 105.174 31 113.217 31C119.801 31 120.124 30.891 119.82 28.775C119.424 26.019 115.673 24.034 110.823 24.015C104.799 23.991 101.307 18.048 104.163 12.684C105.926 9.37501 108.137 8.06701 112.027 8.03201C116.269 7.99401 120 5.61201 120 2.94301C120 1.24201 119.285 1.00301 114.25 1.02201C110.851 1.03501 106.864 1.79101 104.5 2.87101ZM122 15.887C122 29.91 122.133 31 123.845 31C127.814 31 129 27.935 129 17.671V8.00001H134.389C142.694 8.00001 144.309 9.82101 145.059 20.034C145.536 26.525 146.069 28.578 147.563 29.67C151.594 32.617 152.501 31.109 152.49 21.477C152.482 13.912 152.126 11.927 150.223 8.85301C146.446 2.75401 143.796 1.62101 132.25 1.17201L122 0.77301V15.887ZM154 2.36801C154 5.38601 157.735 8.00001 162.045 8.00001C167.29 8.00001 171 11.43 171 16.28C171 20.678 167.801 23.58 162.172 24.287C157.641 24.856 154 27.295 154 29.761C154 30.937 155.501 31.144 161.924 30.852C168.712 30.544 170.23 30.135 172.519 27.996C176.298 24.464 178 20.74 178 16C178 6.80301 172.517 1.92501 161.373 1.21001C155.028 0.80301 154 0.965011 154 2.36801ZM180 10.85C180 20.119 180.17 20.935 182.883 24.68C186.525 29.708 190.508 31.398 197.2 30.755C206.51 29.86 211.394 21.796 210.795 8.30501C210.631 4.61901 210.011 1.49801 209.401 1.29701C208.797 1.09701 207.233 1.80001 205.926 2.85901C203.885 4.51201 203.496 5.84401 203.169 12.316C202.706 21.487 200.957 24 195.034 24C189.192 24 187 20.699 187 11.904C187 6.17001 186.65 4.75201 184.811 3.03901C180.641 -0.84599 180 0.195011 180 10.85ZM192.2 2.20001C191.54 2.86001 191 4.45001 191 5.73201C191 8.47401 194.568 10.252 197.25 8.84701C200.579 7.10201 198.829 1.00001 195 1.00001C194.12 1.00001 192.86 1.54001 192.2 2.20001ZM220.424 3.01901C210.153 8.10301 209.307 22.06 218.875 28.561C221.806 30.553 223.706 31 229.232 31C235.987 31 237.116 30.304 235.214 27.313C234.184 25.692 229.481 24 226.007 24C222.874 24 219 20.082 219 16.912C219 11.773 223.16 8.00001 228.825 8.00001C232.348 8.00001 236 5.42601 236 2.94301C236 1.24401 235.278 1.00001 230.25 1.00101C226.498 1.00101 223.084 1.70301 220.424 3.01901ZM52.598 10.331C54.795 12.22 55.396 13.733 55.778 18.331L56.248 24H50.124C45.333 24 43.565 23.565 42 22C38.736 18.736 39.008 13.491 42.611 10.25C45.816 7.36601 49.183 7.39301 52.598 10.331ZM154.399 14.164C153.242 16.036 158.678 20 162.401 20C166.617 20 169.903 16.793 168.016 14.519C166.478 12.666 155.501 12.38 154.399 14.164Z" fill="#B5B5B5"/>
</svg>
