<svg width="133" height="23" viewBox="0 0 133 23" fill="none" xmlns="http://www.w3.org/2000/svg">
<path d="M9.096 17.286C8.216 17.286 7.32133 16.8973 6.412 16.12L6.236 17H3.068L6.06 3.008L9.316 2.568L6.676 14.91C7.08667 15.2033 7.50467 15.35 7.93 15.35C8.766 15.35 9.49933 14.866 10.13 13.898C10.7753 12.93 11.274 11.698 11.626 10.202C11.978 8.706 12.154 7.19533 12.154 5.67C12.154 4.23267 11.868 3.184 11.296 2.524C10.7387 1.84933 9.954 1.512 8.942 1.512C7.842 1.512 6.852 1.732 5.972 2.172C5.10667 2.59733 4.42467 3.21333 3.926 4.02C3.42733 4.82667 3.178 5.77267 3.178 6.858C3.178 7.40067 3.22933 7.782 3.332 8.002C3.43467 8.20733 3.486 8.32467 3.486 8.354C2.72333 8.354 2.13667 8.19267 1.726 7.87C1.33 7.54733 1.132 7.02667 1.132 6.308C1.132 5.31067 1.506 4.36467 2.254 3.47C3.002 2.57533 3.99933 1.85667 5.246 1.314C6.50733 0.771332 7.864 0.499999 9.316 0.499999C11.3253 0.499999 12.8067 1.094 13.76 2.282C14.7133 3.47 15.19 4.988 15.19 6.836C15.19 8.508 14.904 10.158 14.332 11.786C13.7747 13.3993 13.0267 14.7193 12.088 15.746C11.1493 16.7727 10.152 17.286 9.096 17.286ZM19.2619 4.812C18.7779 4.812 18.3672 4.64333 18.0299 4.306C17.6926 3.96867 17.5239 3.558 17.5239 3.074C17.5239 2.59 17.6926 2.17933 18.0299 1.842C18.3672 1.49 18.7779 1.314 19.2619 1.314C19.7459 1.314 20.1566 1.49 20.4939 1.842C20.8459 2.17933 21.0219 2.59 21.0219 3.074C21.0219 3.558 20.8459 3.96867 20.4939 4.306C20.1566 4.64333 19.7459 4.812 19.2619 4.812ZM17.7659 17.132C17.0619 17.132 16.4899 16.912 16.0499 16.472C15.6246 16.032 15.4119 15.372 15.4119 14.492C15.4119 14.1253 15.4706 13.6487 15.5879 13.062L17.0839 6H20.2519L18.6679 13.48C18.6092 13.7 18.5799 13.9347 18.5799 14.184C18.5799 14.4773 18.6459 14.69 18.7779 14.822C18.9246 14.9393 19.1592 14.998 19.4819 14.998C19.9072 14.998 20.3032 14.822 20.6699 14.47C21.0366 14.1033 21.3006 13.634 21.4619 13.062H22.3859C21.8432 14.646 21.1466 15.724 20.2959 16.296C19.4452 16.8533 18.6019 17.132 17.7659 17.132ZM25.3471 22.5C24.6431 22.5 24.0565 22.3167 23.5871 21.95C23.1178 21.5833 22.8831 21.0553 22.8831 20.366C22.8831 19.53 23.2205 18.8553 23.8951 18.342C24.5698 17.8433 25.4278 17.4253 26.4691 17.088L26.7331 15.922C25.9851 16.7287 25.1051 17.132 24.0931 17.132C23.2571 17.132 22.5605 16.846 22.0031 16.274C21.4458 15.702 21.1671 14.8073 21.1671 13.59C21.1671 12.5047 21.3798 11.368 21.8051 10.18C22.2451 8.97733 22.8905 7.96533 23.7411 7.144C24.6065 6.308 25.6331 5.89 26.8211 5.89C27.4225 5.89 27.8698 5.99267 28.1631 6.198C28.4565 6.40333 28.6031 6.67467 28.6031 7.012V7.144L28.8451 6H32.0131L29.8351 16.208C30.5391 15.9733 31.1038 15.6213 31.5291 15.152C31.9545 14.6827 32.3138 13.986 32.6071 13.062H33.5311C33.1351 14.3673 32.5998 15.328 31.9251 15.944C31.2505 16.5453 30.4878 16.956 29.6371 17.176L29.3071 18.76C29.0138 20.1827 28.5078 21.158 27.7891 21.686C27.0705 22.2287 26.2565 22.5 25.3471 22.5ZM25.5231 14.998C25.8605 14.998 26.2051 14.844 26.5571 14.536C26.9091 14.228 27.1511 13.81 27.2831 13.282L28.4051 8.068C28.4051 7.892 28.3318 7.716 28.1851 7.54C28.0385 7.34933 27.8111 7.254 27.5031 7.254C26.9165 7.254 26.3885 7.59867 25.9191 8.288C25.4498 8.96267 25.0831 9.784 24.8191 10.752C24.5551 11.7053 24.4231 12.5487 24.4231 13.282C24.4231 14.0153 24.5258 14.4847 24.7311 14.69C24.9511 14.8953 25.2151 14.998 25.5231 14.998ZM24.8411 20.784C25.0905 20.784 25.3325 20.6153 25.5671 20.278C25.8018 19.9407 25.9851 19.4567 26.1171 18.826L26.2491 18.188C24.8118 18.716 24.0931 19.3393 24.0931 20.058C24.0931 20.2487 24.1591 20.4173 24.2911 20.564C24.4231 20.7107 24.6065 20.784 24.8411 20.784ZM36.2775 4.812C35.7935 4.812 35.3828 4.64333 35.0455 4.306C34.7082 3.96867 34.5395 3.558 34.5395 3.074C34.5395 2.59 34.7082 2.17933 35.0455 1.842C35.3828 1.49 35.7935 1.314 36.2775 1.314C36.7615 1.314 37.1722 1.49 37.5095 1.842C37.8615 2.17933 38.0375 2.59 38.0375 3.074C38.0375 3.558 37.8615 3.96867 37.5095 4.306C37.1722 4.64333 36.7615 4.812 36.2775 4.812ZM34.7815 17.132C34.0775 17.132 33.5055 16.912 33.0655 16.472C32.6402 16.032 32.4275 15.372 32.4275 14.492C32.4275 14.1253 32.4862 13.6487 32.6035 13.062L34.0995 6H37.2675L35.6835 13.48C35.6248 13.7 35.5955 13.9347 35.5955 14.184C35.5955 14.4773 35.6615 14.69 35.7935 14.822C35.9402 14.9393 36.1748 14.998 36.4975 14.998C36.9228 14.998 37.3188 14.822 37.6855 14.47C38.0522 14.1033 38.3162 13.634 38.4775 13.062H39.4015C38.8588 14.646 38.1622 15.724 37.3115 16.296C36.4608 16.8533 35.6175 17.132 34.7815 17.132ZM40.6468 17.132C39.9428 17.132 39.3708 16.912 38.9308 16.472C38.5054 16.032 38.2927 15.372 38.2927 14.492C38.2927 14.1253 38.3514 13.6487 38.4688 13.062L39.7888 6.88H39.0628L39.2388 6H39.9648L40.6248 2.964L43.8808 2.524L43.1328 6H44.4528L44.2767 6.88H42.9568L41.5488 13.48C41.4901 13.7 41.4608 13.9347 41.4608 14.184C41.4608 14.4773 41.5268 14.69 41.6588 14.822C41.8054 14.9393 42.0401 14.998 42.3628 14.998C42.7881 14.998 43.1841 14.822 43.5508 14.47C43.9174 14.1033 44.1814 13.634 44.3428 13.062H45.2668C44.7241 14.646 44.0274 15.724 43.1768 16.296C42.3261 16.8533 41.4828 17.132 40.6468 17.132ZM46.974 17.132C46.138 17.132 45.4413 16.846 44.884 16.274C44.3267 15.702 44.048 14.8073 44.048 13.59C44.048 12.5047 44.2607 11.368 44.686 10.18C45.126 8.97733 45.7713 7.96533 46.622 7.144C47.4873 6.308 48.514 5.89 49.702 5.89C50.3033 5.89 50.7507 5.99267 51.044 6.198C51.3373 6.40333 51.484 6.67467 51.484 7.012V7.166L51.726 6H54.894L53.31 13.48C53.2513 13.7 53.222 13.9347 53.222 14.184C53.222 14.8147 53.5227 15.13 54.124 15.13C54.5347 15.13 54.8867 14.9393 55.18 14.558C55.488 14.1767 55.73 13.678 55.906 13.062H56.83C56.2873 14.646 55.6127 15.724 54.806 16.296C54.014 16.8533 53.2147 17.132 52.408 17.132C51.792 17.132 51.2933 16.9633 50.912 16.626C50.5453 16.274 50.3253 15.768 50.252 15.108C49.8267 15.7093 49.35 16.2007 48.822 16.582C48.3087 16.9487 47.6927 17.132 46.974 17.132ZM48.404 14.998C48.7707 14.998 49.13 14.8293 49.482 14.492C49.8487 14.14 50.098 13.6633 50.23 13.062L51.286 8.09C51.286 7.89933 51.2127 7.716 51.066 7.54C50.9193 7.34933 50.692 7.254 50.384 7.254C49.7973 7.254 49.2693 7.59867 48.8 8.288C48.3307 8.96267 47.964 9.784 47.7 10.752C47.436 11.7053 47.304 12.5487 47.304 13.282C47.304 14.0153 47.4067 14.4847 47.612 14.69C47.832 14.8953 48.096 14.998 48.404 14.998ZM58.0481 17.132C57.3441 17.132 56.7721 16.912 56.3321 16.472C55.9067 16.0173 55.6941 15.3427 55.6941 14.448C55.6941 14.0813 55.7527 13.6047 55.8701 13.018L58.2241 1.996L61.4801 1.556L58.9501 13.436C58.8914 13.656 58.8621 13.8687 58.8621 14.074C58.8621 14.6607 59.1627 14.954 59.7641 14.954C60.0281 14.954 60.2627 14.91 60.4681 14.822C60.4094 15.5553 60.1454 16.1273 59.6761 16.538C59.2214 16.934 58.6787 17.132 58.0481 17.132ZM73.3343 17.286C72.4543 17.286 71.5596 16.8973 70.6503 16.12L70.4743 17H67.3063L70.2983 3.008L73.5543 2.568L70.9143 14.91C71.3249 15.2033 71.7429 15.35 72.1683 15.35C73.0043 15.35 73.7376 14.866 74.3683 13.898C75.0136 12.93 75.5123 11.698 75.8643 10.202C76.2163 8.706 76.3923 7.19533 76.3923 5.67C76.3923 4.23267 76.1063 3.184 75.5343 2.524C74.9769 1.84933 74.1923 1.512 73.1803 1.512C72.0803 1.512 71.0903 1.732 70.2103 2.172C69.3449 2.59733 68.6629 3.21333 68.1643 4.02C67.6656 4.82667 67.4163 5.77267 67.4163 6.858C67.4163 7.40067 67.4676 7.782 67.5703 8.002C67.6729 8.20733 67.7243 8.32467 67.7243 8.354C66.9616 8.354 66.3749 8.19267 65.9643 7.87C65.5683 7.54733 65.3703 7.02667 65.3703 6.308C65.3703 5.31067 65.7443 4.36467 66.4923 3.47C67.2403 2.57533 68.2376 1.85667 69.4843 1.314C70.7456 0.771332 72.1023 0.499999 73.5543 0.499999C75.5636 0.499999 77.0449 1.094 77.9983 2.282C78.9516 3.47 79.4283 4.988 79.4283 6.836C79.4283 8.508 79.1423 10.158 78.5703 11.786C78.0129 13.3993 77.2649 14.7193 76.3263 15.746C75.3876 16.7727 74.3903 17.286 73.3343 17.286ZM81.3222 6H84.4902L84.2042 7.364C84.7028 6.924 85.1502 6.58667 85.5462 6.352C85.9568 6.11733 86.3968 6 86.8662 6C87.3355 6 87.7022 6.16133 87.9662 6.484C88.2448 6.80667 88.3842 7.19533 88.3842 7.65C88.3842 8.07533 88.2448 8.44933 87.9662 8.772C87.6875 9.09467 87.2988 9.256 86.8002 9.256C86.4775 9.256 86.2575 9.18267 86.1402 9.036C86.0375 8.87467 85.9568 8.64733 85.8982 8.354C85.8542 8.16333 85.8102 8.024 85.7662 7.936C85.7222 7.848 85.6415 7.804 85.5242 7.804C85.2162 7.804 84.9522 7.87 84.7322 8.002C84.5268 8.11933 84.2555 8.332 83.9182 8.64L82.1582 17H78.9902L81.3222 6ZM91.2437 17.132C90.1583 17.132 89.315 16.8533 88.7137 16.296C88.1123 15.724 87.8117 14.8367 87.8117 13.634C87.8117 12.622 88.0097 11.5073 88.4057 10.29C88.8017 9.07267 89.447 8.024 90.3417 7.144C91.2363 6.24933 92.373 5.802 93.7517 5.802C95.365 5.802 96.1717 6.506 96.1717 7.914C96.1717 8.73533 95.937 9.49067 95.4677 10.18C94.9983 10.8693 94.375 11.4267 93.5977 11.852C92.8203 12.2627 91.9917 12.4973 91.1117 12.556C91.0823 12.996 91.0677 13.2893 91.0677 13.436C91.0677 14.1547 91.1923 14.646 91.4417 14.91C91.691 15.1593 92.0943 15.284 92.6517 15.284C93.4437 15.284 94.1183 15.1007 94.6757 14.734C95.2477 14.3673 95.871 13.81 96.5457 13.062H97.2937C95.6657 15.7753 93.649 17.132 91.2437 17.132ZM91.2877 11.5C91.8303 11.4707 92.3437 11.28 92.8277 10.928C93.3263 10.576 93.7223 10.1287 94.0157 9.586C94.3237 9.04333 94.4777 8.47133 94.4777 7.87C94.4777 7.26867 94.2943 6.968 93.9277 6.968C93.3997 6.968 92.879 7.43 92.3657 8.354C91.867 9.278 91.5077 10.3267 91.2877 11.5ZM99.181 17.132C98.345 17.132 97.6483 16.846 97.091 16.274C96.5337 15.702 96.255 14.8073 96.255 13.59C96.255 12.5047 96.4677 11.368 96.893 10.18C97.333 8.97733 97.9783 7.96533 98.829 7.144C99.6943 6.308 100.721 5.89 101.909 5.89C102.51 5.89 102.958 5.99267 103.251 6.198C103.544 6.40333 103.691 6.67467 103.691 7.012V7.166L103.933 6H107.101L105.517 13.48C105.458 13.7 105.429 13.9347 105.429 14.184C105.429 14.8147 105.73 15.13 106.331 15.13C106.742 15.13 107.094 14.9393 107.387 14.558C107.695 14.1767 107.937 13.678 108.113 13.062H109.037C108.494 14.646 107.82 15.724 107.013 16.296C106.221 16.8533 105.422 17.132 104.615 17.132C103.999 17.132 103.5 16.9633 103.119 16.626C102.752 16.274 102.532 15.768 102.459 15.108C102.034 15.7093 101.557 16.2007 101.029 16.582C100.516 16.9487 99.8997 17.132 99.181 17.132ZM100.611 14.998C100.978 14.998 101.337 14.8293 101.689 14.492C102.056 14.14 102.305 13.6633 102.437 13.062L103.493 8.09C103.493 7.89933 103.42 7.716 103.273 7.54C103.126 7.34933 102.899 7.254 102.591 7.254C102.004 7.254 101.476 7.59867 101.007 8.288C100.538 8.96267 100.171 9.784 99.907 10.752C99.643 11.7053 99.511 12.5487 99.511 13.282C99.511 14.0153 99.6137 14.4847 99.819 14.69C100.039 14.8953 100.303 14.998 100.611 14.998ZM121.497 17.132C120.602 17.132 119.942 16.8973 119.517 16.428C119.106 15.944 118.901 15.35 118.901 14.646C118.901 14.338 118.938 13.9933 119.011 13.612C119.084 13.216 119.158 12.8347 119.231 12.468C119.319 12.1013 119.378 11.8667 119.407 11.764C119.524 11.2507 119.634 10.7447 119.737 10.246C119.84 9.74733 119.891 9.344 119.891 9.036C119.891 8.288 119.627 7.914 119.099 7.914C118.718 7.914 118.38 8.10467 118.087 8.486C117.794 8.85267 117.559 9.33667 117.383 9.938L115.887 17H112.719L114.325 9.41C114.369 9.234 114.391 9.05067 114.391 8.86C114.391 8.21467 114.171 7.892 113.731 7.892C113.32 7.892 112.961 8.08267 112.653 8.464C112.36 8.83067 112.125 9.322 111.949 9.938L110.453 17H107.285L109.617 6H112.785L112.543 7.144C113.291 6.308 114.186 5.89 115.227 5.89C116.518 5.89 117.273 6.52067 117.493 7.782C118.3 6.53533 119.319 5.912 120.551 5.912C121.299 5.912 121.893 6.11733 122.333 6.528C122.773 6.93867 122.993 7.562 122.993 8.398C122.993 8.82333 122.942 9.3 122.839 9.828C122.736 10.3413 122.59 10.972 122.399 11.72C122.282 12.1747 122.172 12.622 122.069 13.062C121.981 13.4873 121.937 13.8247 121.937 14.074C121.937 14.3673 122.003 14.5947 122.135 14.756C122.267 14.9173 122.494 14.998 122.817 14.998C123.257 14.998 123.609 14.844 123.873 14.536C124.137 14.2133 124.401 13.722 124.665 13.062H125.589C125.046 14.6753 124.416 15.7607 123.697 16.318C122.993 16.8607 122.26 17.132 121.497 17.132ZM127.172 17.132C126.468 17.132 125.874 17 125.39 16.736C124.906 16.4573 124.547 16.1053 124.312 15.68C124.077 15.24 123.96 14.7853 123.96 14.316C123.96 13.832 124.077 13.414 124.312 13.062C124.532 12.6953 124.803 12.4313 125.126 12.27C125.698 11.2433 126.197 10.2093 126.622 9.168C127.047 8.112 127.451 6.97533 127.832 5.758L131.088 5.318C131.161 7.19533 131.286 9.22667 131.462 11.412C131.535 12.292 131.572 12.93 131.572 13.326C131.572 14.2207 131.345 14.954 130.89 15.526C130.435 16.098 129.871 16.5087 129.196 16.758C128.536 17.0073 127.861 17.132 127.172 17.132ZM126.468 15.394C127.011 15.394 127.465 15.2327 127.832 14.91C128.199 14.5873 128.382 14.0667 128.382 13.348C128.382 12.908 128.338 12.292 128.25 11.5C128.103 9.828 128.008 8.706 127.964 8.134C127.612 9.29267 127.018 10.6787 126.182 12.292C126.519 12.468 126.688 12.7247 126.688 13.062C126.688 13.3407 126.593 13.59 126.402 13.81C126.226 14.03 125.999 14.14 125.72 14.14C125.412 14.14 125.214 14.0447 125.126 13.854C125.126 14.382 125.229 14.7707 125.434 15.02C125.654 15.2693 125.999 15.394 126.468 15.394Z" fill="#EFEFEF"/>
<path d="M31 20L132 20" stroke="white" stroke-linecap="round"/>
<path d="M1 20L21 20" stroke="white" stroke-linecap="round"/>
</svg>
